<svg width="26" height="26" viewBox="0 0 26 26" fill="none" xmlns="http://www.w3.org/2000/svg">
<path d="M16.653 13.364C17.4759 12.4803 17.9394 11.3214 17.953 10.114C17.953 8.81073 17.4353 7.56083 16.5137 6.63928C15.5922 5.71772 14.3423 5.2 13.039 5.2C11.7357 5.2 10.4858 5.71772 9.56428 6.63928C8.64272 7.56083 8.125 8.81073 8.125 10.114C8.13857 11.3214 8.60213 12.4803 9.425 13.364C8.27925 13.9345 7.29329 14.7809 6.55579 15.827C5.81829 16.8731 5.35239 18.0862 5.2 19.357C5.16207 19.7018 5.26266 20.0475 5.47964 20.3181C5.69662 20.5887 6.01222 20.7621 6.357 20.8C6.70178 20.8379 7.04751 20.7373 7.31812 20.5204C7.58874 20.3034 7.76207 19.9878 7.8 19.643C7.95513 18.3835 8.5655 17.2242 9.51611 16.3834C10.4667 15.5427 11.692 15.0787 12.961 15.0787C14.23 15.0787 15.4553 15.5427 16.4059 16.3834C17.3565 17.2242 17.9669 18.3835 18.122 19.643C18.1582 19.9763 18.3217 20.2828 18.5785 20.4984C18.8353 20.714 19.1654 20.8221 19.5 20.8H19.643C19.9838 20.7608 20.2952 20.5885 20.5095 20.3206C20.7238 20.0528 20.8235 19.7111 20.787 19.37C20.6459 18.1059 20.1947 16.8961 19.4735 15.8484C18.7523 14.8006 17.7834 13.9472 16.653 13.364ZM13 12.428C12.5423 12.428 12.0949 12.2923 11.7144 12.038C11.3339 11.7838 11.0373 11.4224 10.8621 10.9995C10.687 10.5767 10.6412 10.1114 10.7305 9.66256C10.8197 9.21369 11.0401 8.80137 11.3638 8.47775C11.6874 8.15414 12.0997 7.93375 12.5486 7.84446C12.9974 7.75518 13.4627 7.801 13.8855 7.97614C14.3084 8.15128 14.6698 8.44788 14.924 8.82841C15.1783 9.20895 15.314 9.65633 15.314 10.114C15.314 10.7277 15.0702 11.3163 14.6362 11.7502C14.2023 12.1842 13.6137 12.428 13 12.428ZM22.1 0H3.9C2.86566 0 1.87368 0.410892 1.14228 1.14228C0.410892 1.87368 0 2.86566 0 3.9V22.1C0 23.1343 0.410892 24.1263 1.14228 24.8577C1.87368 25.5891 2.86566 26 3.9 26H22.1C23.1343 26 24.1263 25.5891 24.8577 24.8577C25.5891 24.1263 26 23.1343 26 22.1V3.9C26 2.86566 25.5891 1.87368 24.8577 1.14228C24.1263 0.410892 23.1343 0 22.1 0ZM23.4 22.1C23.4 22.4448 23.263 22.7754 23.0192 23.0192C22.7754 23.263 22.4448 23.4 22.1 23.4H3.9C3.55522 23.4 3.22456 23.263 2.98076 23.0192C2.73696 22.7754 2.6 22.4448 2.6 22.1V3.9C2.6 3.55522 2.73696 3.22456 2.98076 2.98076C3.22456 2.73696 3.55522 2.6 3.9 2.6H22.1C22.4448 2.6 22.7754 2.73696 23.0192 2.98076C23.263 3.22456 23.4 3.55522 23.4 3.9V22.1Z" fill="#2C2C2C"/>
</svg>
