<svg width="29" height="27" viewBox="0 0 29 27" fill="none" xmlns="http://www.w3.org/2000/svg">
<path d="M8.45842 16.875H12.0834C12.4039 16.875 12.7112 16.7565 12.9378 16.5455C13.1644 16.3345 13.2917 16.0484 13.2917 15.75C13.2917 15.4516 13.1644 15.1655 12.9378 14.9545C12.7112 14.7435 12.4039 14.625 12.0834 14.625H8.45842C8.13795 14.625 7.8306 14.7435 7.60399 14.9545C7.37739 15.1655 7.25008 15.4516 7.25008 15.75C7.25008 16.0484 7.37739 16.3345 7.60399 16.5455C7.8306 16.7565 8.13795 16.875 8.45842 16.875ZM22.9584 5.625H6.04175C5.08034 5.625 4.15831 5.98058 3.47849 6.61351C2.79867 7.24645 2.41675 8.10489 2.41675 9V19.125C2.41675 20.0201 2.79867 20.8786 3.47849 21.5115C4.15831 22.1444 5.08034 22.5 6.04175 22.5H22.9584C23.9198 22.5 24.8419 22.1444 25.5217 21.5115C26.2015 20.8786 26.5834 20.0201 26.5834 19.125V9C26.5834 8.10489 26.2015 7.24645 25.5217 6.61351C24.8419 5.98058 23.9198 5.625 22.9584 5.625ZM24.1667 19.125C24.1667 19.4234 24.0394 19.7095 23.8128 19.9205C23.5862 20.1315 23.2789 20.25 22.9584 20.25H6.04175C5.72128 20.25 5.41393 20.1315 5.18733 19.9205C4.96072 19.7095 4.83341 19.4234 4.83341 19.125V12.375H24.1667V19.125ZM24.1667 10.125H4.83341V9C4.83341 8.70163 4.96072 8.41548 5.18733 8.2045C5.41393 7.99353 5.72128 7.875 6.04175 7.875H22.9584C23.2789 7.875 23.5862 7.99353 23.8128 8.2045C24.0394 8.41548 24.1667 8.70163 24.1667 9V10.125Z" fill="#F6BE00"/>
</svg>
