<svg width="26" height="26" viewBox="0 0 26 26" fill="none" xmlns="http://www.w3.org/2000/svg">
<path d="M22.1 13H13V3.9C13 3.12 12.48 2.6 11.7 2.6C5.2 2.6 0 7.8 0 14.3C0 20.8 5.2 26 11.7 26C18.2 26 23.4 20.8 23.4 14.3C23.4 13.52 22.88 13 22.1 13ZM13 23.27C8.06 24.05 3.38 20.54 2.73 15.6C1.95 10.66 5.46 5.98 10.4 5.33V14.3C10.4 15.08 10.92 15.6 11.7 15.6H20.67C20.15 19.63 17.03 22.75 13 23.27ZM16.9 0C16.12 0 15.6 0.52 15.6 1.3V9.1C15.6 9.88 16.12 10.4 16.9 10.4H24.7C25.48 10.4 26 9.88 26 9.1C26 4.03 21.97 0 16.9 0ZM18.2 7.8V2.73C20.8 3.25 22.75 5.2 23.27 7.8H18.2Z" fill="#2C2C2C"/>
</svg>
