<svg width="24" height="24" viewBox="0 0 24 24" fill="none" xmlns="http://www.w3.org/2000/svg">
<path opacity="0.9" d="M16.452 7.548C16.3404 7.43553 16.2077 7.34625 16.0615 7.28533C15.9153 7.22441 15.7584 7.19304 15.6 7.19304C15.4416 7.19304 15.2847 7.22441 15.1385 7.28533C14.9923 7.34625 14.8596 7.43553 14.748 7.548L12 10.308L9.252 7.548C9.02604 7.32204 8.71956 7.19509 8.4 7.19509C8.08044 7.19509 7.77396 7.32204 7.548 7.548C7.32204 7.77396 7.19509 8.08044 7.19509 8.4C7.19509 8.71956 7.32204 9.02604 7.548 9.252L10.308 12L7.548 14.748C7.43553 14.8596 7.34625 14.9923 7.28533 15.1385C7.22441 15.2847 7.19304 15.4416 7.19304 15.6C7.19304 15.7584 7.22441 15.9153 7.28533 16.0615C7.34625 16.2077 7.43553 16.3404 7.548 16.452C7.65956 16.5645 7.79228 16.6537 7.93851 16.7147C8.08474 16.7756 8.24159 16.807 8.4 16.807C8.55841 16.807 8.71526 16.7756 8.86149 16.7147C9.00772 16.6537 9.14044 16.5645 9.252 16.452L12 13.692L14.748 16.452C14.8596 16.5645 14.9923 16.6537 15.1385 16.7147C15.2847 16.7756 15.4416 16.807 15.6 16.807C15.7584 16.807 15.9153 16.7756 16.0615 16.7147C16.2077 16.6537 16.3404 16.5645 16.452 16.452C16.5645 16.3404 16.6537 16.2077 16.7147 16.0615C16.7756 15.9153 16.807 15.7584 16.807 15.6C16.807 15.4416 16.7756 15.2847 16.7147 15.1385C16.6537 14.9923 16.5645 14.8596 16.452 14.748L13.692 12L16.452 9.252C16.5645 9.14044 16.6537 9.00772 16.7147 8.86149C16.7756 8.71526 16.807 8.55841 16.807 8.4C16.807 8.24159 16.7756 8.08474 16.7147 7.93851C16.6537 7.79228 16.5645 7.65956 16.452 7.548ZM20.4 0H3.6C2.64522 0 1.72955 0.379285 1.05442 1.05442C0.379285 1.72955 0 2.64522 0 3.6V20.4C0 21.3548 0.379285 22.2705 1.05442 22.9456C1.72955 23.6207 2.64522 24 3.6 24H20.4C21.3548 24 22.2705 23.6207 22.9456 22.9456C23.6207 22.2705 24 21.3548 24 20.4V3.6C24 2.64522 23.6207 1.72955 22.9456 1.05442C22.2705 0.379285 21.3548 0 20.4 0ZM21.6 20.4C21.6 20.7183 21.4736 21.0235 21.2485 21.2485C21.0235 21.4736 20.7183 21.6 20.4 21.6H3.6C3.28174 21.6 2.97652 21.4736 2.75147 21.2485C2.52643 21.0235 2.4 20.7183 2.4 20.4V3.6C2.4 3.28174 2.52643 2.97652 2.75147 2.75147C2.97652 2.52643 3.28174 2.4 3.6 2.4H20.4C20.7183 2.4 21.0235 2.52643 21.2485 2.75147C21.4736 2.97652 21.6 3.28174 21.6 3.6V20.4Z" fill="#F7D04E"/>
</svg>
