<svg width="26" height="20" viewBox="0 0 26 20" fill="none" xmlns="http://www.w3.org/2000/svg">
<path d="M2.22328 17.1497C2.09964 16.9979 1.95386 16.879 1.79428 16.7997C1.47779 16.633 1.12279 16.633 0.806293 16.7997C0.646718 16.879 0.500931 16.9979 0.377298 17.1497C0.258946 17.3082 0.166173 17.4951 0.104301 17.6997C0.00474894 18.0032 -0.0224502 18.3377 0.0261356 18.661C0.0747214 18.9843 0.196915 19.2819 0.377298 19.5163C0.503658 19.6635 0.648754 19.7819 0.806293 19.8663C0.961902 19.9545 1.13016 20 1.30029 20C1.47042 20 1.63867 19.9545 1.79428 19.8663C1.95182 19.7819 2.09692 19.6635 2.22328 19.5163C2.40366 19.2819 2.52585 18.9843 2.57444 18.661C2.62302 18.3377 2.59583 18.0032 2.49627 17.6997C2.4344 17.4951 2.34163 17.3082 2.22328 17.1497ZM6.50023 3.33327H24.7C25.0448 3.33327 25.3755 3.15768 25.6192 2.84512C25.863 2.53257 26 2.10865 26 1.66663C26 1.22462 25.863 0.800701 25.6192 0.488146C25.3755 0.175592 25.0448 0 24.7 0H6.50023C6.15545 0 5.82479 0.175592 5.581 0.488146C5.3372 0.800701 5.20024 1.22462 5.20024 1.66663C5.20024 2.10865 5.3372 2.53257 5.581 2.84512C5.82479 3.15768 6.15545 3.33327 6.50023 3.33327ZM2.22328 8.8165C2.04047 8.58524 1.80833 8.42858 1.55614 8.36629C1.30396 8.304 1.04303 8.33887 0.806293 8.4665C0.648754 8.5509 0.503658 8.66928 0.377298 8.8165C0.258946 8.975 0.166173 9.1619 0.104301 9.36648C0.0355251 9.56598 0 9.78169 0 9.99981C0 10.2179 0.0355251 10.4336 0.104301 10.6331C0.170135 10.8351 0.262469 11.0211 0.377298 11.1831C0.503658 11.3303 0.648754 11.4487 0.806293 11.5331C0.961902 11.6213 1.13016 11.6668 1.30029 11.6668C1.47042 11.6668 1.63867 11.6213 1.79428 11.5331C1.95182 11.4487 2.09692 11.3303 2.22328 11.1831C2.33811 11.0211 2.43044 10.8351 2.49627 10.6331C2.56505 10.4336 2.60057 10.2179 2.60057 9.99981C2.60057 9.78169 2.56505 9.56598 2.49627 9.36648C2.4344 9.1619 2.34163 8.975 2.22328 8.8165ZM24.7 8.33317H6.50023C6.15545 8.33317 5.82479 8.50876 5.581 8.82132C5.3372 9.13387 5.20024 9.55779 5.20024 9.99981C5.20024 10.4418 5.3372 10.8657 5.581 11.1783C5.82479 11.4908 6.15545 11.6664 6.50023 11.6664H24.7C25.0448 11.6664 25.3755 11.4908 25.6192 11.1783C25.863 10.8657 26 10.4418 26 9.99981C26 9.55779 25.863 9.13387 25.6192 8.82132C25.3755 8.50876 25.0448 8.33317 24.7 8.33317ZM2.22328 0.483324C2.09964 0.331592 1.95386 0.212653 1.79428 0.133331C1.55754 0.00570071 1.29662 -0.0291693 1.04443 0.0331197C0.792249 0.0954087 0.560107 0.252066 0.377298 0.483324C0.262469 0.645322 0.170135 0.831342 0.104301 1.03331C0.0355251 1.23281 0 1.44852 0 1.66663C0 1.88475 0.0355251 2.10046 0.104301 2.29996C0.170135 2.50193 0.262469 2.68795 0.377298 2.84994C0.503658 2.99716 0.648754 3.11554 0.806293 3.19994C1.04303 3.32757 1.30396 3.36244 1.55614 3.30015C1.80833 3.23786 2.04047 3.0812 2.22328 2.84994C2.33811 2.68795 2.43044 2.50193 2.49627 2.29996C2.56505 2.10046 2.60057 1.88475 2.60057 1.66663C2.60057 1.44852 2.56505 1.23281 2.49627 1.03331C2.43044 0.831342 2.33811 0.645322 2.22328 0.483324ZM24.7 16.6663H6.50023C6.15545 16.6663 5.82479 16.8419 5.581 17.1545C5.3372 17.467 5.20024 17.891 5.20024 18.333C5.20024 18.775 5.3372 19.1989 5.581 19.5115C5.82479 19.824 6.15545 19.9996 6.50023 19.9996H24.7C25.0448 19.9996 25.3755 19.824 25.6192 19.5115C25.863 19.1989 26 18.775 26 18.333C26 17.891 25.863 17.467 25.6192 17.1545C25.3755 16.8419 25.0448 16.6663 24.7 16.6663Z" fill="#ECC060"/>
</svg>
